<?xml version="1.0" encoding="UTF-8"?>
<!DOCTYPE svg PUBLIC "-//W3C//DTD SVG 1.1//EN" "http://www.w3.org/Graphics/SVG/1.1/DTD/svg11.dtd">
<!-- Creator: CorelDRAW (Versão OEM) -->
<svg xmlns="http://www.w3.org/2000/svg" xml:space="preserve" width="210mm" height="297mm" version="1.1" style="shape-rendering:geometricPrecision; text-rendering:geometricPrecision; image-rendering:optimizeQuality; fill-rule:evenodd; clip-rule:evenodd"
viewBox="0 0 21000 29700"
 xmlns:xlink="http://www.w3.org/1999/xlink"
 xmlns:xodm="http://www.corel.com/coreldraw/odm/2003">
 <defs>
  <style type="text/css">
   <![CDATA[
    .fil0 {fill:#004E84}
   ]]>
  </style>
 </defs>
 <g id="Camada_x0020_1">
  <metadata id="CorelCorpID_0Corel-Layer"/>
  <path class="fil0" d="M9815.65 8145.29c-206.54,611.5 -1170.78,3674.51 -1378.12,3948.96 -9.54,-114.66 -90.48,-375.58 -128.61,-506.31l-886.02 -3240c-31.66,-106.29 -38.43,-190.63 -78.84,-274.86 -930.55,0 -1783.8,-35.27 -2680.78,-35.27 0,312.01 945.74,4632.87 1090.56,5329.19 105.93,509.36 257.89,1001.38 555.61,1407.2 82.22,112.09 236.69,243.08 331.24,339.2 134.6,136.84 502.04,335.08 809.19,470.26 285.46,129.99 1032.63,384.5 1198.25,426.98 155,39.76 333.6,69.5 530.14,69.5 105.45,-383.98 128.53,-424.71 176.37,-599.65 208.03,-760.69 532.7,-1637.9 740.74,-2398.59l374.38 -1212.92c65.99,-196.8 145.87,-431.9 189.99,-621.29l70.55 0c44.88,192.64 123.29,387.25 189.68,586.33l802.23 2373.92c17.22,53.48 102.22,294.17 102.3,294.41l400.47 1211.85c19.54,59.82 35.82,119.52 51.46,160.19 80.68,209.82 207.5,196.1 515.35,150.93 801.04,-117.52 2014.4,-425.85 2535.53,-1062.45 117.95,-144.1 102.77,-126.59 180.13,-313.7 272.05,-658.05 793.2,-3691.55 1014.71,-4629.02 62.67,-265.22 108.59,-564.36 176.43,-846.59 111.7,-489.06 -124.49,-726.13 -462.76,-922.53 -754.18,-437.86 -2349.43,-283.77 -3248.03,-283.77 37.57,141.63 265.02,-8.79 614.18,161.83 152.41,74.48 346.55,228.16 371.37,404.85 79.72,567.35 -809.72,3281.2 -950.28,3771.95l-1298.45 -3356.51c-39.77,-96.76 -52.17,-158.2 -92.11,-261.76l-196.74 -543.99c-146.82,-0.42 -1620.12,-5.77 -1620.12,1.66z"/>
 </g>
</svg>
